<svg width="76" height="76" viewBox="0 0 76 76" fill="none" xmlns="http://www.w3.org/2000/svg">
<g filter="url(#filter0_d_129709_8611)">
<g clip-path="url(#clip0_129709_8611)">
<g clip-path="url(#clip1_129709_8611)">
<circle cx="38.0001" cy="31.9996" r="27.5333" fill="#E17846"/>
<mask id="mask0_129709_8611" style="mask-type:alpha" maskUnits="userSpaceOnUse" x="10" y="4" width="56" height="56">
<circle cx="38.0001" cy="32.0001" r="27.5333" fill="#E17846"/>
</mask>
<g mask="url(#mask0_129709_8611)">
<path d="M11.6138 21.7334H58.0668V58.6001H10.4668V22.6667L11.6138 21.7334Z" fill="#806234"/>
<rect x="19.333" y="22.6665" width="18.6667" height="18.6667" fill="#806234"/>
<rect x="38" y="41.3335" width="18.6667" height="18.6667" fill="#806234"/>
<rect x="38" y="22.6665" width="18.6667" height="18.6667" fill="#D1AB41"/>
<rect x="0.666992" y="22.6665" width="18.6667" height="18.6667" fill="#D1AB41"/>
<rect x="0.666992" y="41.333" width="18.6667" height="18.6667" fill="#806234"/>
<rect x="19.333" y="41.333" width="18.6667" height="18.6667" fill="#D1AB41"/>
<path opacity="0.3" d="M10.4668 22.6665H27.7335L19.071 59.5332H10.4668V22.6665Z" fill="white"/>
<path d="M56.6669 32.9337C55.3187 32.9337 53.9837 32.6682 52.738 32.1522C51.4924 31.6363 50.3606 30.88 49.4073 29.9267C48.4539 28.9733 47.6977 27.8415 47.1818 26.5959C46.6658 25.3503 46.4003 24.0153 46.4003 22.6671L56.6669 22.6671L56.6669 32.9337Z" fill="#E6DDC3"/>
<circle cx="56.6674" cy="22.667" r="8.86667" fill="#EB5757"/>
<mask id="mask1_129709_8611" style="mask-type:alpha" maskUnits="userSpaceOnUse" x="47" y="13" width="19" height="19">
<circle cx="56.6674" cy="22.667" r="8.86667" fill="#3DAB9E"/>
</mask>
<g mask="url(#mask1_129709_8611)">
<path d="M53.4336 19.4331L60.0333 26.0327M60.0333 19.4331L53.4336 26.0327" stroke="white" stroke-width="1.86667"/>
<path opacity="0.3" d="M50.6008 22.667C50.6008 27.5639 54.5705 31.5336 59.4675 31.5336H46.4004V13.8003H59.4675C54.5705 13.8003 50.6008 17.77 50.6008 22.667Z" fill="white"/>
</g>
<path d="M41.5481 52.0668C41.4729 52.0668 41.3976 52.0357 41.3449 51.9772C41.2923 51.9188 41.2622 51.8448 41.2659 51.763L41.3525 49.3437C41.3525 49.2385 41.4127 49.145 41.4992 49.0983C42.293 48.6542 43.1997 47.9841 43.3201 47.653C43.5082 45.3116 43.6926 41.3497 43.7377 39.7602C43.0267 39.7174 42.4398 39.2655 42.293 38.6305L41.5782 35.9619C41.4616 35.4555 41.8039 35.2957 42.199 35.1126C42.2065 35.1087 42.2328 35.0971 42.2441 35.0932L43.3502 34.7192C43.3803 34.7114 43.4066 34.7036 43.4367 34.7036C43.7565 34.7036 44.0387 34.8828 44.1591 35.1594L44.4751 36.2424H45.9461V35.0464C45.9461 34.6529 46.2923 34.3335 46.7174 34.3335H48.4179C48.8431 34.3335 49.1892 34.6529 49.1892 35.0464V36.2424H50.6564L50.9612 35.1906C50.9612 35.1906 50.9687 35.1633 50.9762 35.1516C51.1004 34.8789 51.3826 34.7036 51.6986 34.7036C51.7287 34.7036 51.7588 34.7075 51.7851 34.7192L52.8874 35.0932C53.3239 35.2918 53.67 35.4477 53.5571 35.9463L52.8385 38.6344C52.6993 39.2499 52.1011 39.7096 51.3976 39.7524C51.4315 41.2835 51.582 45.2493 51.8115 47.6452C51.9281 47.9724 52.8348 48.6464 53.6286 49.0905C53.7151 49.1411 53.7716 49.2346 53.7753 49.3359L53.8656 51.7552C53.8656 51.8331 53.8393 51.911 53.7866 51.9694C53.7339 52.0279 53.6587 52.059 53.5835 52.059H41.5481V52.0668Z" fill="#4D3F37"/>
<path d="M48.4189 34.3335C48.844 34.3335 49.1904 34.653 49.1904 35.0464V36.2427H50.6572L50.9619 35.1909C50.9619 35.1909 50.97 35.1636 50.9775 35.1519C51.1017 34.8792 51.3842 34.7036 51.7002 34.7036C51.7301 34.7036 51.76 34.7077 51.7861 34.7192L52.8887 35.0933C53.3251 35.2919 53.6715 35.4481 53.5586 35.9468L52.8398 38.6343C52.7006 39.2498 52.102 39.7096 51.3984 39.7524C51.4323 41.2834 51.583 45.2491 51.8125 47.645C51.9291 47.9723 52.8361 48.6462 53.6299 49.0903C53.7164 49.141 53.7726 49.2351 53.7764 49.3364L53.8672 51.7554C53.8672 51.8331 53.8406 51.9109 53.7881 51.9692C53.7355 52.0276 53.6601 52.059 53.585 52.0591H46.4004C47.8893 50.0882 48.8681 46.7515 48.8682 42.9673C48.8682 39.4616 48.026 36.3411 46.7188 34.3335H48.4189Z" fill="#262322"/>
<rect x="41.2656" y="51.1338" width="12.6" height="0.933333" fill="#262322"/>
<path d="M31.4658 20.3335H34.2666L28.667 28.2671L23.0664 20.3335H25.8662V14.7339H31.4658V20.3335Z" fill="#FACF47"/>
<path opacity="0.3" d="M29.5997 20.3339V14.7339H25.8664L25.8664 20.3339H23.0664L28.6664 28.2672L27.7331 20.3339H29.5997Z" fill="white"/>
<circle cx="28.6665" cy="32.0005" r="1.86667" fill="#FAF6EB"/>
</g>
</g>
</g>
<rect x="8.44444" y="2.44444" width="59.1111" height="59.1111" rx="29.5556" stroke="white" stroke-width="3.11111" shape-rendering="crispEdges"/>
</g>
<defs>
<filter id="filter0_d_129709_8611" x="0.66645" y="0.888672" width="74.6671" height="74.6671" filterUnits="userSpaceOnUse" color-interpolation-filters="sRGB">
<feFlood flood-opacity="0" result="BackgroundImageFix"/>
<feColorMatrix in="SourceAlpha" type="matrix" values="0 0 0 0 0 0 0 0 0 0 0 0 0 0 0 0 0 0 127 0" result="hardAlpha"/>
<feOffset dy="6.22222"/>
<feGaussianBlur stdDeviation="3.11111"/>
<feComposite in2="hardAlpha" operator="out"/>
<feColorMatrix type="matrix" values="0 0 0 0 0.301961 0 0 0 0 0.247059 0 0 0 0 0.215686 0 0 0 0.08 0"/>
<feBlend mode="normal" in2="BackgroundImageFix" result="effect1_dropShadow_129709_8611"/>
<feBlend mode="normal" in="SourceGraphic" in2="effect1_dropShadow_129709_8611" result="shape"/>
</filter>
<clipPath id="clip0_129709_8611">
<rect x="10" y="4" width="56" height="56" rx="28" fill="white"/>
</clipPath>
<clipPath id="clip1_129709_8611">
<rect width="56" height="56" fill="white" transform="translate(10 4)"/>
</clipPath>
</defs>
</svg>
