<svg width="64" height="168" viewBox="0 0 64 168" fill="none" xmlns="http://www.w3.org/2000/svg">
<path opacity="0.2" fill-rule="evenodd" clip-rule="evenodd" d="M8 0H0V8H8V16H0V24H8V32H0V40H8V48H0V56H8V64H0V72H8V80H0V88H8V96H0V104H8V112H0V120H8V128H0V136H8V144H0V152H8V160H0V168H8V160H16V168H24V160H32V168H40V160H48V168H56V160H64V152H56V144H64V136H56V128H64V120H56V112H64V104H56V96H64V88H56V80H64V72H56V64H64V56H56V48H64V40H56V32H64V24H56V16H64V8H56V0H48V8H40V0H32V8H24V0H16V8H8V0ZM16 16V8H24V16H16ZM16 24H8V16H16V24ZM24 24V16H32V24H24ZM24 32V24H16V32H8V40H16V48H8V56H16V64H8V72H16V80H8V88H16V96H8V104H16V112H8V120H16V128H8V136H16V144H8V152H16V160H24V152H32V160H40V152H48V160H56V152H48V144H56V136H48V128H56V120H48V112H56V104H48V96H56V88H48V80H56V72H48V64H56V56H48V48H56V40H48V32H56V24H48V16H56V8H48V16H40V8H32V16H40V24H32V32H24ZM24 40V32H16V40H24ZM32 40V32H40V40H32ZM32 48V40H24V48H16V56H24V64H16V72H24V80H16V88H24V96H16V104H24V112H16V120H24V128H16V136H24V144H16V152H24V144H32V152H40V144H48V136H40V128H48V120H40V112H48V104H40V96H48V88H40V80H48V72H40V64H48V56H40V48H48V40H40V48H32ZM32 56H40V64H32V56ZM32 72H40V80H32V72ZM32 88H40V96H32V88ZM32 104H40V112H32V104ZM32 120H24V112H32V120ZM32 128V120H40V128H32ZM32 136H24V128H32V136ZM32 104H24V96H32V104ZM32 88H24V80H32V88ZM32 72H24V64H32V72ZM32 56H24V48H32V56ZM32 136H40V144H32V136ZM40 32V24H48V32H40Z" fill="#D1AB41"/>
</svg>
